<svg xmlns="http://www.w3.org/2000/svg" viewBox="0 0 512 512">
  <rect width="512" height="512" rx="108" fill="white"/>
  <defs>
    <clipPath id="seg-0"><circle cx="256" cy="256" r="162.154" /></clipPath>
    <clipPath id="seg-1"><circle cx="256" cy="256" r="124.833" /></clipPath>
    <clipPath id="seg-2"><circle cx="256" cy="256" r="144.091" /></clipPath>
    <clipPath id="seg-3"><circle cx="256" cy="256" r="172.667" /></clipPath>
    <clipPath id="seg-4"><circle cx="256" cy="256" r="185.739" /></clipPath>
    <clipPath id="seg-5"><circle cx="256" cy="256" r="165.833" /></clipPath>
    <clipPath id="seg-6"><circle cx="256" cy="256" r="183.600" /></clipPath>
    <clipPath id="seg-7"><circle cx="256" cy="256" r="200.000" /></clipPath>
    <clipPath id="seg-8"><circle cx="256" cy="256" r="145.333" /></clipPath>
    <clipPath id="seg-9"><circle cx="256" cy="256" r="200.000" /></clipPath>
  </defs>
  <path d="M 220.88770984639936 134.9912107317433 L 200.4858402506967 72.20071254945293 Q 198.01318910628143 64.59067482910837 205.71390384076335 62.42492791409322 A 200 200 0 0 1 306.2860961592367 62.424927914093246 Q 313.9868108937186 64.5906748291084 311.5141597493033 72.20071254945293 L 291.11229015360067 134.9912107317433 Q 288.6388229444264 142.60376004116193 280.88184882451617 140.65315956180714 A 118 118 0 0 0 231.11815117548383 140.65315956180714 Q 223.36117705557365 142.6037600411619 220.88770984639936 134.9912107317433 Z" fill="#1e40af" fill-opacity="0.16" />
  <path d="M 220.88770984639936 134.9912107317433 L 200.4858402506967 72.20071254945293 Q 198.01318910628143 64.59067482910837 205.71390384076335 62.42492791409322 A 200 200 0 0 1 306.2860961592367 62.424927914093246 Q 313.9868108937186 64.5906748291084 311.5141597493033 72.20071254945293 L 291.11229015360067 134.9912107317433 Q 288.6388229444264 142.60376004116193 280.88184882451617 140.65315956180714 A 118 118 0 0 0 231.11815117548383 140.65315956180714 Q 223.36117705557365 142.6037600411619 220.88770984639936 134.9912107317433 Z" fill="#1e40af" fill-opacity="0.92" clip-path="url(#seg-0)" />
  <path d="M 298.72074228396195 137.4633466867429 L 319.1226118796646 74.6728485044525 Q 321.5952630240799 67.062810784108 329.0982662099531 69.83705127738543 A 200 200 0 0 1 410.46287895714363 128.95190271290642 Q 415.41989394932926 135.23039532570863 408.94640921092866 139.93365729255032 L 355.53362117533607 178.74031933974427 Q 349.0579999516593 183.44513355399948 343.9290102586047 177.30762962686796 A 118 118 0 0 0 303.66933315760093 148.0572620492252 Q 296.2472750747876 145.07589599616148 298.72074228396195 137.4633466867429 Z" fill="#065f46" fill-opacity="0.16" />
  <path d="M 298.72074228396195 137.4633466867429 L 319.1226118796646 74.6728485044525 Q 321.5952630240799 67.062810784108 329.0982662099531 69.83705127738543 A 200 200 0 0 1 410.46287895714363 128.95190271290642 Q 415.41989394932926 135.23039532570863 408.94640921092866 139.93365729255032 L 355.53362117533607 178.74031933974427 Q 349.0579999516593 183.44513355399948 343.9290102586047 177.30762962686796 A 118 118 0 0 0 303.66933315760093 148.0572620492252 Q 296.2472750747876 145.07589599616148 298.72074228396195 137.4633466867429 Z" fill="#065f46" fill-opacity="0.92" clip-path="url(#seg-1)" />
  <path d="M 360.2359031936758 185.21245529474385 L 413.6486912292684 146.40579324754992 Q 420.122175967669 141.70253128070823 424.5615754056288 148.35709360681258 A 200 200 0 0 1 455.64009199358264 244.00693246938607 Q 455.9599959991998 252 447.95832881122925 252 L 381.9364919314493 252 Q 373.93218390244454 252 373.3902783710445 244.01991051917 A 118 118 0 0 0 358.01245009455687 196.69182159511604 Q 353.76028196999914 189.91726950899908 360.2359031936758 185.21245529474385 Z" fill="#16a34a" fill-opacity="0.16" />
  <path d="M 360.2359031936758 185.21245529474385 L 413.6486912292684 146.40579324754992 Q 420.122175967669 141.70253128070823 424.5615754056288 148.35709360681258 A 200 200 0 0 1 455.64009199358264 244.00693246938607 Q 455.9599959991998 252 447.95832881122925 252 L 381.9364919314493 252 Q 373.93218390244454 252 373.3902783710445 244.01991051917 A 118 118 0 0 0 358.01245009455687 196.69182159511604 Q 353.76028196999914 189.91726950899908 360.2359031936758 185.21245529474385 Z" fill="#16a34a" fill-opacity="0.92" clip-path="url(#seg-2)" />
  <path d="M 381.9364919314493 260 L 447.95832881122925 260 Q 455.9599959991998 260 455.64009199358264 267.9930675306139 A 200 200 0 0 1 424.5615754056288 363.64290639318745 Q 420.122175967669 370.29746871929177 413.6486912292684 365.5942067524501 L 360.2359031936758 326.78754470525615 Q 353.76028196999914 322.0827304910009 358.01245009455687 315.30817840488396 A 118 118 0 0 0 373.3902783710445 267.98008948083003 Q 373.93218390244454 260 381.9364919314493 260 Z" fill="#dc2626" fill-opacity="0.16" />
  <path d="M 381.9364919314493 260 L 447.95832881122925 260 Q 455.9599959991998 260 455.64009199358264 267.9930675306139 A 200 200 0 0 1 424.5615754056288 363.64290639318745 Q 420.122175967669 370.29746871929177 413.6486912292684 365.5942067524501 L 360.2359031936758 326.78754470525615 Q 353.76028196999914 322.0827304910009 358.01245009455687 315.30817840488396 A 118 118 0 0 0 373.3902783710445 267.98008948083003 Q 373.93218390244454 260 381.9364919314493 260 Z" fill="#dc2626" fill-opacity="0.92" clip-path="url(#seg-3)" />
  <path d="M 355.53362117533607 333.25968066025575 L 408.94640921092866 372.0663427074497 Q 415.41989394932926 376.7696046742914 410.46287895714363 383.0480972870936 A 200 200 0 0 1 329.0982662099531 442.1629487226146 Q 321.5952630240798 444.93718921589203 319.12261187966453 437.32715149554747 L 298.72074228396195 374.5366533132571 Q 296.24727507478764 366.92410400383847 303.66933315760093 363.9427379507748 A 118 118 0 0 0 343.9290102586047 334.692370373132 Q 349.0579999516593 328.55486644600046 355.53362117533607 333.25968066025575 Z" fill="#7c3aed" fill-opacity="0.16" />
  <path d="M 355.53362117533607 333.25968066025575 L 408.94640921092866 372.0663427074497 Q 415.41989394932926 376.7696046742914 410.46287895714363 383.0480972870936 A 200 200 0 0 1 329.0982662099531 442.1629487226146 Q 321.5952630240798 444.93718921589203 319.12261187966453 437.32715149554747 L 298.72074228396195 374.5366533132571 Q 296.24727507478764 366.92410400383847 303.66933315760093 363.9427379507748 A 118 118 0 0 0 343.9290102586047 334.692370373132 Q 349.0579999516593 328.55486644600046 355.53362117533607 333.25968066025575 Z" fill="#7c3aed" fill-opacity="0.92" clip-path="url(#seg-4)" />
  <path d="M 291.11229015360067 377.0087892682567 L 311.51415974930336 439.79928745054707 Q 313.9868108937187 447.4093251708916 306.2860961592367 449.57507208590675 A 200 200 0 0 1 205.71390384076335 449.57507208590675 Q 198.01318910628137 447.40932517089163 200.48584025069667 439.79928745054707 L 220.88770984639936 377.0087892682567 Q 223.36117705557368 369.3962399588381 231.11815117548383 371.3468404381929 A 118 118 0 0 0 280.88184882451617 371.3468404381929 Q 288.63882294442635 369.3962399588381 291.11229015360067 377.0087892682567 Z" fill="#ea580c" fill-opacity="0.16" />
  <path d="M 291.11229015360067 377.0087892682567 L 311.51415974930336 439.79928745054707 Q 313.9868108937187 447.4093251708916 306.2860961592367 449.57507208590675 A 200 200 0 0 1 205.71390384076335 449.57507208590675 Q 198.01318910628137 447.40932517089163 200.48584025069667 439.79928745054707 L 220.88770984639936 377.0087892682567 Q 223.36117705557368 369.3962399588381 231.11815117548383 371.3468404381929 A 118 118 0 0 0 280.88184882451617 371.3468404381929 Q 288.63882294442635 369.3962399588381 291.11229015360067 377.0087892682567 Z" fill="#ea580c" fill-opacity="0.92" clip-path="url(#seg-5)" />
  <path d="M 213.27925771603805 374.5366533132571 L 192.87738812033547 437.3271514955475 Q 190.40473697592023 444.93718921589203 182.9017337900469 442.1629487226146 A 200 200 0 0 1 101.53712104285637 383.0480972870936 Q 96.58010605067074 376.7696046742914 103.05359078907134 372.0663427074497 L 156.46637882466396 333.25968066025575 Q 162.94200004834067 328.5548664460005 168.0709897413953 334.69237037313206 A 118 118 0 0 0 208.33066684239904 363.9427379507748 Q 215.75272492521242 366.9241040038385 213.27925771603805 374.5366533132571 Z" fill="#0891b2" fill-opacity="0.16" />
  <path d="M 213.27925771603805 374.5366533132571 L 192.87738812033547 437.3271514955475 Q 190.40473697592023 444.93718921589203 182.9017337900469 442.1629487226146 A 200 200 0 0 1 101.53712104285637 383.0480972870936 Q 96.58010605067074 376.7696046742914 103.05359078907134 372.0663427074497 L 156.46637882466396 333.25968066025575 Q 162.94200004834067 328.5548664460005 168.0709897413953 334.69237037313206 A 118 118 0 0 0 208.33066684239904 363.9427379507748 Q 215.75272492521242 366.9241040038385 213.27925771603805 374.5366533132571 Z" fill="#0891b2" fill-opacity="0.92" clip-path="url(#seg-6)" />
  <path d="M 151.76409680632418 326.78754470525615 L 98.35130877073158 365.59420675245013 Q 91.877824032331 370.2974687192918 87.43842459437121 363.64290639318745 A 200 200 0 0 1 56.359908006417356 267.99306753061387 Q 56.040004000800195 260 64.04167118877075 260.0000000000001 L 130.06350806855068 260.00000000000006 Q 138.06781609755546 260.00000000000006 138.60972162895555 267.98008948083003 A 118 118 0 0 0 153.98754990544313 315.30817840488396 Q 158.23971803000086 322.0827304910009 151.76409680632418 326.78754470525615 Z" fill="#4338ca" fill-opacity="0.16" />
  <path d="M 151.76409680632418 326.78754470525615 L 98.35130877073158 365.59420675245013 Q 91.877824032331 370.2974687192918 87.43842459437121 363.64290639318745 A 200 200 0 0 1 56.359908006417356 267.99306753061387 Q 56.040004000800195 260 64.04167118877075 260.0000000000001 L 130.06350806855068 260.00000000000006 Q 138.06781609755546 260.00000000000006 138.60972162895555 267.98008948083003 A 118 118 0 0 0 153.98754990544313 315.30817840488396 Q 158.23971803000086 322.0827304910009 151.76409680632418 326.78754470525615 Z" fill="#4338ca" fill-opacity="0.92" clip-path="url(#seg-7)" />
  <path d="M 130.06350806855068 251.99999999999994 L 64.04167118877075 251.99999999999997 Q 56.040004000800195 252.00000000000014 56.359908006417356 244.0069324693861 A 200 200 0 0 1 87.43842459437127 148.3570936068124 Q 91.877824032331 141.70253128070814 98.35130877073149 146.40579324754998 L 151.76409680632412 185.2124552947439 Q 158.23971803000083 189.91726950899914 153.98754990544313 196.69182159511604 A 118 118 0 0 0 138.60972162895555 244.01991051917 Q 138.06781609755546 252.00000000000003 130.06350806855068 251.99999999999994 Z" fill="#be185d" fill-opacity="0.16" />
  <path d="M 130.06350806855068 251.99999999999994 L 64.04167118877075 251.99999999999997 Q 56.040004000800195 252.00000000000014 56.359908006417356 244.0069324693861 A 200 200 0 0 1 87.43842459437127 148.3570936068124 Q 91.877824032331 141.70253128070814 98.35130877073149 146.40579324754998 L 151.76409680632412 185.2124552947439 Q 158.23971803000083 189.91726950899914 153.98754990544313 196.69182159511604 A 118 118 0 0 0 138.60972162895555 244.01991051917 Q 138.06781609755546 252.00000000000003 130.06350806855068 251.99999999999994 Z" fill="#be185d" fill-opacity="0.92" clip-path="url(#seg-8)" />
  <path d="M 156.46637882466393 178.74031933974427 L 103.05359078907134 139.9336572925503 Q 96.58010605067074 135.23039532570868 101.53712104285628 128.95190271290653 A 200 200 0 0 1 182.90173379004693 69.8370512773854 Q 190.40473697592023 67.06281078410797 192.87738812033544 74.6728485044525 L 213.27925771603805 137.4633466867429 Q 215.75272492521236 145.0758959961615 208.330666842399 148.0572620492252 A 118 118 0 0 0 168.0709897413953 177.30762962686796 Q 162.94200004834067 183.44513355399948 156.46637882466393 178.74031933974427 Z" fill="#a16207" fill-opacity="0.16" />
  <path d="M 156.46637882466393 178.74031933974427 L 103.05359078907134 139.9336572925503 Q 96.58010605067074 135.23039532570868 101.53712104285628 128.95190271290653 A 200 200 0 0 1 182.90173379004693 69.8370512773854 Q 190.40473697592023 67.06281078410797 192.87738812033544 74.6728485044525 L 213.27925771603805 137.4633466867429 Q 215.75272492521236 145.0758959961615 208.330666842399 148.0572620492252 A 118 118 0 0 0 168.0709897413953 177.30762962686796 Q 162.94200004834067 183.44513355399948 156.46637882466393 178.74031933974427 Z" fill="#a16207" fill-opacity="0.92" clip-path="url(#seg-9)" />
  <circle cx="256" cy="256" r="104" fill="white"/>
  <text x="256" y="256" fill="#0f172a" font-family="Georgia, 'Times New Roman', serif" font-size="146" font-weight="700" text-anchor="middle" dominant-baseline="central">P</text>
</svg>
